<?xml version="1.0" encoding="utf-8"?>
<!-- Generator: Adobe Illustrator 25.0.0, SVG Export Plug-In . SVG Version: 6.00 Build 0)  -->
<svg version="1.1" id="Layer_1" xmlns="http://www.w3.org/2000/svg" xmlns:xlink="http://www.w3.org/1999/xlink" x="0px" y="0px"
	 viewBox="0 0 78.6 87.4" style="enable-background:new 0 0 78.6 87.4;" xml:space="preserve">
<style type="text/css">
	.st0{fill:#FFFFFF;}
</style>
<g>
	<path class="st0" d="M21.4,19.7c-2.7-0.2-4.6,2.1-5.2,4.5c-0.5,2,2.6,2.8,3.1,0.8c0.2-0.9,0.8-2.1,1.9-2.2c0.7,0,1.6,0.6,1.7,1.3
		c0.2,2,3.4,2,3.2,0C25.7,21.8,23.9,19.8,21.4,19.7z"/>
	<path class="st0" d="M57.2,19.7c-2.5,0.1-4.3,2.1-4.6,4.5c-0.2,2,2.9,2,3.2,0c0.1-0.7,1-1.4,1.7-1.3c1.1,0,1.6,1.3,1.9,2.2
		c0.5,2,3.6,1.1,3.1-0.8C61.8,21.7,59.9,19.5,57.2,19.7z"/>
	<path class="st0" d="M45.5,38.6c0.1,3.4-2.5,6.9-6.1,7s-6.3-3.4-6.3-6.8c0-2.1-3.2-2.1-3.2,0c0,5.2,4.1,10,9.5,10s9.5-5,9.3-10.2
		C48.7,36.5,45.5,36.5,45.5,38.6z"/>
	<path class="st0" d="M71.2,6L71.2,6C63.9-2.7,52.5,0.1,45,2c-2.4,0.6-4.4,1.1-5.7,1.1S36,2.6,33.6,2C26.1,0.1,14.7-2.7,7.4,6
		c-8.9,10.6-9.2,28.4-3.9,38.4c4.6,8.7,4.9,21.9,5.1,26.9c0.2,6.6,4.1,16.1,10.8,16.1c3.6,0,6.5-5.4,10.1-12.2
		c2.9-5.5,7-13.1,9.8-13.1s6.9,7.5,9.8,13.1c3.6,6.8,6.5,12.2,10.1,12.2c6.7,0,10.6-9.5,10.8-16.1c0.1-5,0.5-18.2,5.1-26.9
		C80.4,34.4,80.1,16.6,71.2,6z M72.1,42.8c-4.9,9.4-5.3,23.2-5.5,28.4c-0.1,5.1-3.3,12.7-7.3,12.7c-1.5,0-5-6.5-7.1-10.4
		c-4.1-7.7-7.9-14.9-12.9-14.9s-8.8,7.2-12.9,14.9c-2.1,3.9-5.6,10.4-7.1,10.4c-4.1,0-7.2-7.6-7.4-12.8c-0.1-5.2-0.5-19-5.5-28.4
		C2.3,34.9,1.2,18.5,9.9,8.1C15.8,1,25.6,3.4,32.7,5.2c2.6,0.6,4.8,1.2,6.5,1.2s3.9-0.6,6.5-1.2C52.8,3.4,62.5,1,68.5,8.1l0,0
		C77.3,18.6,76.2,35,72.1,42.8z"/>
</g>
</svg>
